# xmcd
#
# Track frame offsets:
#	150
#	21697
#	38220
#	59502
#	73982
#	86967
#	104415
#	123812
#	133762
#	156285
#	172512
#	186947
#	209232
#	223097
#	237282
#	254262
#	270092
#
# Disc length: 3781 seconds
#
# Revision: 1
# Processed by: cddbd v1.5.1PL0 Copyright (c) Steve Scherf et al.
# Submitted via: audiograbber 1.80
#
DISCID=050ec311
DTITLE=Eleven Hundred Springs - Live at Adairs
DYEAR=1900
DGENRE=
TTITLE0=San Antonio Rose
TTITLE1=One More Chance
TTITLE2=I'm Comin' Home
TTITLE3=Jim, Jack, and Rose
TTITLE4=Center Ridge Breakdown
TTITLE5=The Only Thing She Left Me (Was the Blues)
TTITLE6=Seven Days
TTITLE7=Springtime in Texas
TTITLE8=Rock Island Line
TTITLE9=Anywhere I'm Loving You
TTITLE10=Raise Hell, Drink Beer
TTITLE11=A Few Words To Remember Me By
TTITLE12=Gone Crazy Blues
TTITLE13=Thing For You
TTITLE14=Queen of Canton Street
TTITLE15=Don't the Girls All Get Prettier
TTITLE16=San Antonio Rose
EXTD=
EXTT0=
EXTT1=
EXTT2=
EXTT3=
EXTT4=
EXTT5=
EXTT6=
EXTT7=
EXTT8=
EXTT9=
EXTT10=
EXTT11=
EXTT12=
EXTT13=
EXTT14=
EXTT15=
EXTT16=
PLAYORDER=
